<svg width="40" height="24" viewBox="0 0 40 24" fill="none" xmlns="http://www.w3.org/2000/svg">
<mask id="path-1-outside-1_1_2" maskUnits="userSpaceOnUse" x="-1" y="-1" width="42" height="26" fill="black">
<rect fill="white" x="-1" y="-1" width="42" height="26"/>
<path d="M23.44 23.4C23.0133 23.4 22.6267 23.3067 22.28 23.12C21.9333 22.96 21.76 22.5867 21.76 22C21.76 21.4933 22.0267 20.76 22.56 19.8C23.0933 18.84 23.8133 17.7467 24.72 16.52C25.6267 15.2667 26.6267 13.96 27.72 12.6C28.84 11.24 29.9867 9.92 31.16 8.64C32.3333 7.33333 33.4533 6.13333 34.52 5.04C35.5867 3.92 36.5333 2.98667 37.36 2.24C38.1867 1.49333 38.8 1.02667 39.2 0.839999C39.3333 0.786665 39.4267 0.786665 39.48 0.839999C39.5333 0.866666 39.4667 0.919999 39.28 1C38.48 1.37333 37.5067 2.01333 36.36 2.92C35.24 3.8 34.0133 4.85333 32.68 6.08C31.3733 7.30667 30.0267 8.61333 28.64 10C27.2533 11.3867 25.9067 12.7733 24.6 14.16C23.32 15.52 22.12 16.8 21 18C19.9067 19.1733 18.9733 20.1867 18.2 21.04C17.4267 21.8933 16.8933 22.48 16.6 22.8C16.2533 23.1467 15.96 23.28 15.72 23.2C15.48 23.12 15.36 22.8267 15.36 22.32C15.36 21.6267 15.5733 20.76 16 19.72C16.4267 18.68 17 17.5467 17.72 16.32C18.44 15.0933 19.24 13.84 20.12 12.56C21 11.28 21.88 10.04 22.76 8.84C23.6667 7.61333 24.52 6.50667 25.32 5.52C26.1467 4.53333 26.84 3.72 27.4 3.08C27.9867 2.41333 28.3733 2 28.56 1.84C28.6667 1.76 28.84 1.70667 29.08 1.68C29.32 1.65333 29.3333 1.70667 29.12 1.84C28.5867 2.10666 27.8533 2.69333 26.92 3.6C25.9867 4.50667 24.92 5.61333 23.72 6.92C22.52 8.2 21.2267 9.58667 19.84 11.08C18.48 12.5733 17.0667 14.04 15.6 15.48C14.1333 16.92 12.68 18.24 11.24 19.44C9.82667 20.6133 8.46667 21.56 7.16 22.28C5.85333 23 4.66667 23.36 3.6 23.36C2.53333 23.36 1.78667 23.1733 1.36 22.8C0.933333 22.4 0.72 22 0.72 21.6C0.72 21.0667 0.866666 20.68 1.16 20.44C1.45333 20.1733 1.73333 20.04 2 20.04C2.61333 20.04 2.92 20.2533 2.92 20.68C2.92 21 2.81333 21.2267 2.6 21.36C2.38667 21.4667 2.21333 21.52 2.08 21.52C1.84 21.52 1.65333 21.4933 1.52 21.44C1.38667 21.36 1.32 21.32 1.32 21.32C1.32 21.3733 1.34667 21.5333 1.4 21.8C1.42667 22.0667 1.6 22.3333 1.92 22.6C2.21333 22.84 2.74667 22.96 3.52 22.96C4.61333 22.96 5.82667 22.5733 7.16 21.8C8.52 21 9.94667 19.96 11.44 18.68C12.96 17.4 14.48 15.9867 16 14.44C17.5467 12.8667 19.04 11.2933 20.48 9.72C21.92 8.14667 23.2667 6.69333 24.52 5.36C25.7733 4.02667 26.8667 2.93333 27.8 2.08C28.7333 1.2 29.44 0.706665 29.92 0.6C30.2933 0.519999 30.48 0.519999 30.48 0.6C30.48 0.679999 30.4133 0.786665 30.28 0.919998C29.9333 1.18666 29.4533 1.72 28.84 2.52C28.2267 3.29333 27.5333 4.25333 26.76 5.4C25.9867 6.52 25.16 7.74667 24.28 9.08C23.4267 10.4133 22.5733 11.76 21.72 13.12C20.8667 14.48 20.0667 15.7867 19.32 17.04C18.6 18.2667 17.9733 19.36 17.44 20.32C16.9067 21.28 16.5333 22.0133 16.32 22.52C16.2933 22.5733 16.1867 22.6533 16 22.76C15.8133 22.8667 15.7333 22.9067 15.76 22.88C15.7867 22.8533 16.08 22.52 16.64 21.88C17.2 21.24 17.9467 20.4 18.88 19.36C19.84 18.2933 20.9333 17.12 22.16 15.84C23.3867 14.5333 24.68 13.1867 26.04 11.8C27.4 10.4133 28.7467 9.06667 30.08 7.76C31.44 6.42667 32.7333 5.24 33.96 4.2C35.1867 3.13333 36.2667 2.26666 37.2 1.6C38.16 0.933333 38.9067 0.573333 39.44 0.519999C39.7333 0.466666 39.8667 0.506666 39.84 0.639999C39.84 0.746666 39.7867 0.826666 39.68 0.879999C39.0933 1.22667 38.36 1.86667 37.48 2.8C36.6 3.70667 35.64 4.78667 34.6 6.04C33.56 7.29333 32.4933 8.62667 31.4 10.04C30.3067 11.4533 29.2533 12.8533 28.24 14.24C27.2533 15.6267 26.36 16.9067 25.56 18.08C24.7867 19.2267 24.16 20.1867 23.68 20.96C23.2267 21.7067 23 22.16 23 22.32C23 22.5067 23.0933 22.6667 23.28 22.8C23.4933 22.9333 23.7333 23 24 23C24.6133 23 25.2133 22.8533 25.8 22.56C26.4133 22.2667 26.9333 21.9733 27.36 21.68C27.7867 21.36 28.0133 21.1867 28.04 21.16C28.1733 20.9733 28.3067 20.9867 28.44 21.2C28.5733 21.4133 28.4933 21.5867 28.2 21.72C28.2 21.72 27.96 21.8667 27.48 22.16C27.0267 22.4267 26.44 22.7067 25.72 23C25 23.2667 24.24 23.4 23.44 23.4Z"/>
</mask>
<path d="M23.44 23.4C23.0133 23.4 22.6267 23.3067 22.28 23.12C21.9333 22.96 21.76 22.5867 21.76 22C21.76 21.4933 22.0267 20.76 22.56 19.8C23.0933 18.84 23.8133 17.7467 24.72 16.52C25.6267 15.2667 26.6267 13.96 27.72 12.6C28.84 11.24 29.9867 9.92 31.16 8.64C32.3333 7.33333 33.4533 6.13333 34.52 5.04C35.5867 3.92 36.5333 2.98667 37.36 2.24C38.1867 1.49333 38.8 1.02667 39.2 0.839999C39.3333 0.786665 39.4267 0.786665 39.48 0.839999C39.5333 0.866666 39.4667 0.919999 39.28 1C38.48 1.37333 37.5067 2.01333 36.36 2.92C35.24 3.8 34.0133 4.85333 32.68 6.08C31.3733 7.30667 30.0267 8.61333 28.64 10C27.2533 11.3867 25.9067 12.7733 24.6 14.16C23.32 15.52 22.12 16.8 21 18C19.9067 19.1733 18.9733 20.1867 18.2 21.04C17.4267 21.8933 16.8933 22.48 16.6 22.8C16.2533 23.1467 15.96 23.28 15.72 23.2C15.48 23.12 15.36 22.8267 15.36 22.32C15.36 21.6267 15.5733 20.76 16 19.72C16.4267 18.68 17 17.5467 17.72 16.32C18.44 15.0933 19.24 13.84 20.12 12.56C21 11.28 21.88 10.04 22.76 8.84C23.6667 7.61333 24.52 6.50667 25.32 5.52C26.1467 4.53333 26.84 3.72 27.4 3.08C27.9867 2.41333 28.3733 2 28.56 1.84C28.6667 1.76 28.84 1.70667 29.08 1.68C29.32 1.65333 29.3333 1.70667 29.12 1.84C28.5867 2.10666 27.8533 2.69333 26.92 3.6C25.9867 4.50667 24.92 5.61333 23.72 6.92C22.52 8.2 21.2267 9.58667 19.84 11.08C18.48 12.5733 17.0667 14.04 15.6 15.48C14.1333 16.92 12.68 18.24 11.24 19.44C9.82667 20.6133 8.46667 21.56 7.16 22.28C5.85333 23 4.66667 23.36 3.6 23.36C2.53333 23.36 1.78667 23.1733 1.36 22.8C0.933333 22.4 0.72 22 0.72 21.6C0.72 21.0667 0.866666 20.68 1.16 20.44C1.45333 20.1733 1.73333 20.04 2 20.04C2.61333 20.04 2.92 20.2533 2.92 20.68C2.92 21 2.81333 21.2267 2.6 21.36C2.38667 21.4667 2.21333 21.52 2.08 21.52C1.84 21.52 1.65333 21.4933 1.52 21.44C1.38667 21.36 1.32 21.32 1.32 21.32C1.32 21.3733 1.34667 21.5333 1.4 21.8C1.42667 22.0667 1.6 22.3333 1.92 22.6C2.21333 22.84 2.74667 22.96 3.52 22.96C4.61333 22.96 5.82667 22.5733 7.16 21.8C8.52 21 9.94667 19.96 11.44 18.68C12.96 17.4 14.48 15.9867 16 14.44C17.5467 12.8667 19.04 11.2933 20.48 9.72C21.92 8.14667 23.2667 6.69333 24.52 5.36C25.7733 4.02667 26.8667 2.93333 27.8 2.08C28.7333 1.2 29.44 0.706665 29.92 0.6C30.2933 0.519999 30.48 0.519999 30.48 0.6C30.48 0.679999 30.4133 0.786665 30.28 0.919998C29.9333 1.18666 29.4533 1.72 28.84 2.52C28.2267 3.29333 27.5333 4.25333 26.76 5.4C25.9867 6.52 25.16 7.74667 24.28 9.08C23.4267 10.4133 22.5733 11.76 21.72 13.12C20.8667 14.48 20.0667 15.7867 19.32 17.04C18.6 18.2667 17.9733 19.36 17.44 20.32C16.9067 21.28 16.5333 22.0133 16.32 22.52C16.2933 22.5733 16.1867 22.6533 16 22.76C15.8133 22.8667 15.7333 22.9067 15.76 22.88C15.7867 22.8533 16.08 22.52 16.64 21.88C17.2 21.24 17.9467 20.4 18.88 19.36C19.84 18.2933 20.9333 17.12 22.16 15.84C23.3867 14.5333 24.68 13.1867 26.04 11.8C27.4 10.4133 28.7467 9.06667 30.08 7.76C31.44 6.42667 32.7333 5.24 33.96 4.2C35.1867 3.13333 36.2667 2.26666 37.2 1.6C38.16 0.933333 38.9067 0.573333 39.44 0.519999C39.7333 0.466666 39.8667 0.506666 39.84 0.639999C39.84 0.746666 39.7867 0.826666 39.68 0.879999C39.0933 1.22667 38.36 1.86667 37.48 2.8C36.6 3.70667 35.64 4.78667 34.6 6.04C33.56 7.29333 32.4933 8.62667 31.4 10.04C30.3067 11.4533 29.2533 12.8533 28.24 14.24C27.2533 15.6267 26.36 16.9067 25.56 18.08C24.7867 19.2267 24.16 20.1867 23.68 20.96C23.2267 21.7067 23 22.16 23 22.32C23 22.5067 23.0933 22.6667 23.28 22.8C23.4933 22.9333 23.7333 23 24 23C24.6133 23 25.2133 22.8533 25.8 22.56C26.4133 22.2667 26.9333 21.9733 27.36 21.68C27.7867 21.36 28.0133 21.1867 28.04 21.16C28.1733 20.9733 28.3067 20.9867 28.44 21.2C28.5733 21.4133 28.4933 21.5867 28.2 21.72C28.2 21.72 27.96 21.8667 27.48 22.16C27.0267 22.4267 26.44 22.7067 25.72 23C25 23.2667 24.24 23.4 23.44 23.4Z" fill="#EDE7D9"/>
<path d="M22.28 23.12L22.7541 22.2395L22.727 22.2249L22.6991 22.212L22.28 23.12ZM22.56 19.8L21.6858 19.3144V19.3144L22.56 19.8ZM24.72 16.52L25.5242 17.1144L25.5302 17.1061L24.72 16.52ZM27.72 12.6L26.948 11.9642L26.9406 11.9734L27.72 12.6ZM31.16 8.64L31.8972 9.31576L31.9041 9.30812L31.16 8.64ZM34.52 5.04L35.2358 5.73837L35.2441 5.72965L34.52 5.04ZM37.36 2.24L36.6897 1.49789V1.4979L37.36 2.24ZM39.2 0.839999L38.8286 -0.0884752L38.8025 -0.0780523L38.7771 -0.0661845L39.2 0.839999ZM39.48 0.839999L38.7729 1.54711L38.8876 1.66185L39.0328 1.73443L39.48 0.839999ZM39.28 1L38.8861 0.0808563L38.8715 0.0871062L38.8571 0.0938163L39.28 1ZM36.36 2.92L36.9778 3.70632L36.9802 3.70441L36.36 2.92ZM32.68 6.08L32.0029 5.34403L31.9956 5.35093L32.68 6.08ZM28.64 10L27.9329 9.29289L28.64 10ZM24.6 14.16L23.8722 13.4742L23.8718 13.4746L24.6 14.16ZM21 18L20.2689 17.3177L20.2684 17.3183L21 18ZM18.2 21.04L17.459 20.3685H17.459L18.2 21.04ZM16.6 22.8L17.3071 23.5071L17.3225 23.4917L17.3372 23.4757L16.6 22.8ZM15.72 23.2L15.4038 24.1487L15.72 23.2ZM16 19.72L16.9252 20.0996L16 19.72ZM20.12 12.56L20.944 13.1265L20.12 12.56ZM22.76 8.84L21.9558 8.2456L21.9536 8.24864L22.76 8.84ZM25.32 5.52L24.5535 4.87778L24.5483 4.88395L24.5432 4.8902L25.32 5.52ZM27.4 3.08L26.6493 2.41937L26.6474 2.42149L27.4 3.08ZM28.56 1.84L27.96 1.03999L27.9339 1.05954L27.9092 1.08074L28.56 1.84ZM29.08 1.68L28.9696 0.686114L28.9696 0.686115L29.08 1.68ZM29.12 1.84L29.5672 2.73443L29.6097 2.71318L29.65 2.688L29.12 1.84ZM26.92 3.6L27.6168 4.31728L27.6168 4.31728L26.92 3.6ZM23.72 6.92L24.4496 7.60398L24.4565 7.5964L23.72 6.92ZM19.84 11.08L19.1072 10.3995L19.1007 10.4067L19.84 11.08ZM15.6 15.48L14.8994 14.7664L15.6 15.48ZM11.24 19.44L11.8788 20.2094L11.8802 20.2082L11.24 19.44ZM7.16 22.28L6.6774 21.4042L7.16 22.28ZM1.36 22.8L0.676059 23.5295L0.688579 23.5413L0.701495 23.5526L1.36 22.8ZM1.16 20.44L1.79324 21.214L1.8134 21.1975L1.83267 21.1799L1.16 20.44ZM2.6 21.36L3.04721 22.2544L3.08971 22.2332L3.13 22.208L2.6 21.36ZM1.52 21.44L1.0055 22.2975L1.07421 22.3387L1.14861 22.3685L1.52 21.44ZM1.32 21.32L1.8345 20.4625L0.32 19.5538V21.32H1.32ZM1.4 21.8L2.39504 21.7005L2.39017 21.6518L2.38058 21.6039L1.4 21.8ZM1.92 22.6L1.27979 23.3683L1.28676 23.374L1.92 22.6ZM7.16 21.8L7.66173 22.665L7.66702 22.6619L7.16 21.8ZM11.44 18.68L10.7958 17.9151L10.7892 17.9207L11.44 18.68ZM16 14.44L15.2869 13.739L15.2868 13.7391L16 14.44ZM20.48 9.72L21.2177 10.3952L20.48 9.72ZM24.52 5.36L25.2486 6.04491L24.52 5.36ZM27.8 2.08L28.4748 2.81803L28.4804 2.81285L28.486 2.80759L27.8 2.08ZM29.92 0.6L29.7105 -0.37783L29.7031 -0.376188L29.92 0.6ZM30.28 0.919998L30.8897 1.71262L30.9412 1.67303L30.9871 1.6271L30.28 0.919998ZM28.84 2.52L29.6235 3.14139L29.6286 3.13495L29.6336 3.12843L28.84 2.52ZM26.76 5.4L27.5829 5.96822L27.5891 5.95914L26.76 5.4ZM24.28 9.08L23.4453 8.5291L23.4377 8.54095L24.28 9.08ZM21.72 13.12L20.8729 12.5885L21.72 13.12ZM19.32 17.04L18.4609 16.5282L18.4576 16.5338L19.32 17.04ZM17.44 20.32L18.3142 20.8056H18.3142L17.44 20.32ZM16.32 22.52L17.2144 22.9672L17.229 22.9381L17.2416 22.9081L16.32 22.52ZM16 22.76L16.4961 23.6282L16 22.76ZM15.76 22.88L16.4671 23.5871L16.4671 23.5871L15.76 22.88ZM16.64 21.88L15.8874 21.2215L16.64 21.88ZM18.88 19.36L18.1367 18.691L18.1358 18.6921L18.88 19.36ZM22.16 15.84L22.882 16.5319L22.8891 16.5244L22.16 15.84ZM26.04 11.8L26.7539 12.5002L26.04 11.8ZM30.08 7.76L30.7799 8.47421L30.7801 8.47407L30.08 7.76ZM33.96 4.2L34.6067 4.96282L34.6162 4.9546L33.96 4.2ZM37.2 1.6L36.6296 0.778557L36.6188 0.786265L37.2 1.6ZM39.44 0.519999L39.5395 1.51504L39.5794 1.51104L39.6189 1.50387L39.44 0.519999ZM39.84 0.639999L38.8594 0.443885L38.84 0.540981V0.639999H39.84ZM39.68 0.879999L39.2328 -0.0144312L39.2014 0.00124264L39.1713 0.0190721L39.68 0.879999ZM37.48 2.8L38.1976 3.49648L38.2026 3.49128L38.2076 3.48601L37.48 2.8ZM34.6 6.04L33.8304 5.40143V5.40143L34.6 6.04ZM31.4 10.04L32.191 10.6519L31.4 10.04ZM28.24 14.24L27.4325 13.6499L27.4252 13.6602L28.24 14.24ZM25.56 18.08L24.7338 17.5167L24.7309 17.5209L25.56 18.08ZM23.68 20.96L22.8303 20.4326L22.8252 20.441L23.68 20.96ZM23.28 22.8L22.6988 23.6137L22.7239 23.6317L22.75 23.648L23.28 22.8ZM25.8 22.56L25.3685 21.6579L25.3606 21.6616L25.3528 21.6656L25.8 22.56ZM27.36 21.68L27.9265 22.504L27.9435 22.4924L27.96 22.48L27.36 21.68ZM28.04 21.16L28.7471 21.8671L28.8056 21.8086L28.8537 21.7412L28.04 21.16ZM28.2 21.72L27.7862 20.8096L27.7306 20.8349L27.6786 20.8667L28.2 21.72ZM27.48 22.16L27.987 23.0219L27.9943 23.0177L28.0015 23.0133L27.48 22.16ZM25.72 23L26.0673 23.9377L26.0824 23.9322L26.0973 23.9261L25.72 23ZM23.44 22.4C23.1646 22.4 22.9431 22.3413 22.7541 22.2395L21.8059 24.0005C22.3103 24.2721 22.862 24.4 23.44 24.4V22.4ZM22.6991 22.212C22.7205 22.2219 22.746 22.2388 22.7685 22.2619C22.7902 22.2842 22.7978 22.3005 22.797 22.2989C22.7956 22.2958 22.7858 22.2732 22.7766 22.2223C22.7674 22.1713 22.76 22.0986 22.76 22H20.76C20.76 22.7421 20.9877 23.6249 21.8609 24.028L22.6991 22.212ZM22.76 22C22.76 21.7702 22.9081 21.2326 23.4342 20.2856L21.6858 19.3144C21.1453 20.2874 20.76 21.2165 20.76 22H22.76ZM23.4342 20.2856C23.9402 19.3747 24.6341 18.3186 25.5242 17.1144L23.9158 15.9256C22.9926 17.1747 22.2464 18.3053 21.6858 19.3144L23.4342 20.2856ZM25.5302 17.1061C26.4258 15.8681 27.4153 14.575 28.4994 13.2266L26.9406 11.9734C25.838 13.345 24.8275 14.6652 23.9098 15.9339L25.5302 17.1061ZM28.4919 13.2357C29.6009 11.8892 30.7359 10.5825 31.8972 9.31572L30.4228 7.96427C29.2374 9.25749 28.0791 10.5908 26.9481 11.9643L28.4919 13.2357ZM31.9041 9.30812C33.0695 8.01024 34.18 6.82046 35.2358 5.73832L33.8042 4.34167C32.7266 5.44621 31.5972 6.65643 30.416 7.97187L31.9041 9.30812ZM35.2441 5.72965C36.2996 4.62141 37.2278 3.70694 38.0303 2.9821L36.6897 1.4979C35.8389 2.26639 34.8737 3.21858 33.7959 4.35034L35.2441 5.72965ZM38.0303 2.9821C38.8619 2.23096 39.3751 1.86182 39.6229 1.74618L38.7771 -0.0661845C38.2249 0.191513 37.5114 0.755702 36.6897 1.49789L38.0303 2.9821ZM39.5714 1.76847C39.5687 1.76956 39.5514 1.7764 39.5215 1.78341C39.4924 1.79027 39.44 1.8 39.37 1.8C39.2182 1.8 38.9762 1.75041 38.7729 1.54711L40.1871 0.132893C39.6588 -0.395397 38.9893 -0.152746 38.8286 -0.0884752L39.5714 1.76847ZM39.0328 1.73443C38.955 1.69555 38.8018 1.60558 38.6751 1.42471C38.5284 1.21511 38.4687 0.95492 38.5111 0.700592C38.5477 0.480939 38.6487 0.332638 38.7031 0.263426C38.7616 0.188931 38.8174 0.141442 38.8453 0.119131C38.9286 0.0525088 38.979 0.041049 38.8861 0.0808563L39.6739 1.91914C39.7677 1.87895 39.9448 1.80082 40.0947 1.68087C40.1393 1.64522 40.208 1.58523 40.2757 1.49907C40.3392 1.41819 40.4456 1.25906 40.4839 1.02941C40.528 0.765078 40.4662 0.495722 40.3136 0.277792C40.1812 0.0885844 40.0183 -0.00888348 39.9272 -0.0544281L39.0328 1.73443ZM38.8571 0.0938163C37.9561 0.514286 36.9132 1.20776 35.7398 2.13558L36.9802 3.70441C38.1002 2.8189 39.0039 2.23238 39.7029 1.90618L38.8571 0.0938163ZM35.7422 2.13368C34.5972 3.03331 33.3505 4.1043 32.0029 5.34407L33.3571 6.81593C34.6762 5.60236 35.8828 4.56669 36.9778 3.70632L35.7422 2.13368ZM31.9956 5.35093C30.6806 6.58543 29.3263 7.89947 27.9329 9.29289L29.3471 10.7071C30.727 9.3272 32.0661 8.0279 33.3644 6.80907L31.9956 5.35093ZM27.9329 9.29289C26.5394 10.6864 25.1859 12.0801 23.8722 13.4742L25.3278 14.8458C26.6275 13.4665 27.9672 12.087 29.3471 10.7071L27.9329 9.29289ZM23.8718 13.4746C22.591 14.8355 21.39 16.1165 20.2689 17.3177L21.7311 18.6823C22.85 17.4835 24.049 16.2045 25.3282 14.8454L23.8718 13.4746ZM20.2684 17.3183C19.173 18.4938 18.2364 19.5107 17.459 20.3685L18.941 21.7115C19.7103 20.8626 20.6403 19.8529 21.7316 18.6817L20.2684 17.3183ZM17.459 20.3685C16.6855 21.222 16.154 21.8067 15.8628 22.1243L17.3372 23.4757C17.6327 23.1533 18.1678 22.5647 18.941 21.7115L17.459 20.3685ZM15.8929 22.0929C15.8325 22.1533 15.7848 22.1939 15.75 22.22C15.7146 22.2465 15.7001 22.2524 15.7062 22.2496C15.7128 22.2466 15.749 22.2311 15.8105 22.225C15.8756 22.2184 15.9546 22.2241 16.0362 22.2513L15.4038 24.1487C16.2454 24.4292 16.9411 23.8731 17.3071 23.5071L15.8929 22.0929ZM16.0362 22.2513C16.1333 22.2837 16.2182 22.3394 16.2823 22.4059C16.3424 22.4682 16.3679 22.5227 16.3755 22.5414C16.3828 22.559 16.3777 22.5532 16.3714 22.5117C16.3654 22.4712 16.36 22.4088 16.36 22.32H14.36C14.36 22.6346 14.3947 22.9814 14.5245 23.2986C14.6646 23.6413 14.9397 23.994 15.4038 24.1487L16.0362 22.2513ZM16.36 22.32C16.36 21.8128 16.521 21.0848 16.9252 20.0996L15.0748 19.3404C14.6257 20.4352 14.36 21.4406 14.36 22.32H16.36ZM16.9252 20.0996C17.33 19.1129 17.8804 18.0223 18.5824 16.8262L16.8576 15.8138C16.1196 17.071 15.5234 18.2471 15.0748 19.3404L16.9252 20.0996ZM18.5824 16.8262C19.2893 15.6219 20.0763 14.3887 20.944 13.1265L19.296 11.9935C18.4037 13.2913 17.5907 14.5648 16.8576 15.8138L18.5824 16.8262ZM20.944 13.1265C21.8185 11.8545 22.6927 10.6228 23.5664 9.43136L21.9536 8.24864C21.0673 9.45717 20.1815 10.7055 19.296 11.9935L20.944 13.1265ZM23.5642 9.43439C24.4637 8.21744 25.3078 7.12285 26.0968 6.1498L24.5432 4.8902C23.7322 5.89048 22.8697 7.00923 21.9558 8.24561L23.5642 9.43439ZM26.0865 6.16222C26.9107 5.17856 27.599 4.37115 28.1526 3.7385L26.6474 2.42149C26.081 3.06885 25.3827 3.8881 24.5535 4.87778L26.0865 6.16222ZM28.1507 3.74063C28.7515 3.05787 29.0887 2.70393 29.2108 2.59925L27.9092 1.08074C27.658 1.29607 27.2218 1.7688 26.6493 2.41937L28.1507 3.74063ZM29.16 2.64C29.1258 2.66567 29.0979 2.68047 29.0824 2.68786C29.0669 2.69527 29.0597 2.69713 29.0641 2.69578C29.0683 2.69448 29.0806 2.69103 29.1025 2.68678C29.1243 2.68256 29.1533 2.678 29.1904 2.67388L28.9696 0.686115C28.6754 0.718807 28.2839 0.797077 27.96 1.03999L29.16 2.64ZM29.1904 2.67388C29.2304 2.66944 29.1904 2.67767 29.1128 2.6695C29.0787 2.66591 28.9628 2.6525 28.8244 2.58661C28.6791 2.51741 28.3968 2.33032 28.2999 1.94253C28.2103 1.58425 28.3466 1.31115 28.4034 1.21502C28.4669 1.10761 28.5346 1.04313 28.5552 1.02394C28.6009 0.981302 28.6261 0.96945 28.59 0.992001L29.65 2.688C29.7206 2.64388 29.8241 2.57536 29.9198 2.48605C29.9654 2.44354 30.051 2.35822 30.1253 2.23248C30.1929 2.11802 30.333 1.82908 30.2401 1.45747C30.1399 1.05634 29.8471 0.858424 29.6843 0.78089C29.5284 0.706662 29.388 0.68742 29.3222 0.680493C29.1813 0.665661 29.0496 0.677226 28.9696 0.686114L29.1904 2.67388ZM28.6728 0.94557C27.9912 1.28635 27.1643 1.96856 26.2232 2.88272L27.6168 4.31728C28.5424 3.4181 29.1821 2.92698 29.5672 2.73443L28.6728 0.94557ZM26.2232 2.88272C25.2724 3.80639 24.1921 4.92757 22.9835 6.2436L24.4565 7.5964C25.6479 6.2991 26.701 5.20694 27.6168 4.31728L26.2232 2.88272ZM22.9905 6.23606C21.7892 7.51739 20.4948 8.90523 19.1072 10.3995L20.5728 11.7605C21.9585 10.2681 23.2508 8.88261 24.4495 7.60394L22.9905 6.23606ZM19.1007 10.4067C17.7534 11.886 16.353 13.3393 14.8994 14.7664L16.3006 16.1936C17.7803 14.7407 19.2066 13.2607 20.5793 11.7533L19.1007 10.4067ZM14.8994 14.7664C13.4503 16.1892 12.0171 17.4907 10.5998 18.6718L11.8802 20.2082C13.3429 18.9893 14.8164 17.6508 16.3006 16.1936L14.8994 14.7664ZM10.6012 18.6706C9.22582 19.8124 7.91783 20.7207 6.6774 21.4042L7.6426 23.1558C9.0155 22.3993 10.4275 21.4142 11.8788 20.2094L10.6012 18.6706ZM6.6774 21.4042C5.46275 22.0735 4.44397 22.36 3.6 22.36V24.36C4.88936 24.36 6.24392 23.9265 7.6426 23.1558L6.6774 21.4042ZM3.6 22.36C2.58812 22.36 2.15914 22.1705 2.0185 22.0474L0.701495 23.5526C1.41419 24.1762 2.47855 24.36 3.6 24.36V22.36ZM2.04394 22.0705C1.72496 21.7714 1.72 21.6169 1.72 21.6H-0.28C-0.28 22.3831 0.141706 23.0286 0.676059 23.5295L2.04394 22.0705ZM1.72 21.6C1.72 21.4211 1.74508 21.3172 1.765 21.2647C1.77447 21.2397 1.78245 21.2271 1.78591 21.2221C1.78909 21.2176 1.79114 21.2157 1.79324 21.214L0.526762 19.666C-0.0822477 20.1643 -0.28 20.8946 -0.28 21.6H1.72ZM1.83267 21.1799C1.92594 21.0952 1.98901 21.0576 2.01993 21.0429C2.04743 21.0298 2.03781 21.04 2 21.04V19.04C1.38726 19.04 0.877139 19.3457 0.487327 19.7001L1.83267 21.1799ZM2 21.04C2.09856 21.04 2.15386 21.0489 2.17661 21.0542C2.19924 21.0594 2.17008 21.0565 2.11894 21.0209C2.06136 20.9809 2.00111 20.9165 1.96068 20.8321C1.92262 20.7527 1.92 20.693 1.92 20.68H3.92C3.92 20.1932 3.72449 19.7015 3.26106 19.3791C2.86355 19.1026 2.39181 19.04 2 19.04V21.04ZM1.92 20.68C1.92 20.7322 1.91096 20.7157 1.93518 20.6642C1.94764 20.6377 1.96645 20.6075 1.99259 20.5781C2.01871 20.5487 2.0461 20.5269 2.07 20.512L3.13 22.208C3.71618 21.8416 3.92 21.2378 3.92 20.68H1.92ZM2.15279 20.4656C2.08099 20.5015 2.03651 20.5179 2.01591 20.5242C2.00644 20.5271 2.00689 20.5264 2.01616 20.5248C2.02529 20.5232 2.04733 20.52 2.08 20.52V22.52C2.44696 22.52 2.7882 22.3839 3.04721 22.2544L2.15279 20.4656ZM2.08 20.52C1.99523 20.52 1.9373 20.5152 1.90142 20.51C1.86389 20.5047 1.86526 20.5011 1.89139 20.5115L1.14861 22.3685C1.45335 22.4904 1.78666 22.52 2.08 22.52V20.52ZM2.0345 20.5825C1.97999 20.5498 1.90567 20.5052 1.8845 20.4925C1.87238 20.4852 1.87266 20.4854 1.86262 20.4794C1.85599 20.4754 1.85154 20.4727 1.847 20.47C1.8446 20.4686 1.83794 20.4646 1.83762 20.4644C1.83759 20.4644 1.83756 20.4643 1.83752 20.4643C1.83749 20.4643 1.83746 20.4643 1.83743 20.4643C1.8374 20.4642 1.83737 20.4642 1.83733 20.4642C1.8373 20.4642 1.83727 20.4642 1.83724 20.4642C1.83709 20.4641 1.83721 20.4641 1.83706 20.464C1.837 20.464 1.83695 20.464 1.83689 20.4639C1.83676 20.4639 1.83684 20.4639 1.83672 20.4638C1.83662 20.4638 1.83665 20.4638 1.83656 20.4637C1.83653 20.4637 1.83651 20.4637 1.83648 20.4637C1.83645 20.4637 1.83643 20.4637 1.8364 20.4637C1.83638 20.4636 1.83635 20.4636 1.83633 20.4636C1.8363 20.4636 1.83628 20.4636 1.83625 20.4636C1.8362 20.4635 1.83616 20.4635 1.83611 20.4635C1.83609 20.4635 1.83606 20.4634 1.83604 20.4634C1.83602 20.4634 1.83599 20.4634 1.83597 20.4634C1.83594 20.4634 1.83587 20.4633 1.83584 20.4633C1.83582 20.4633 1.8358 20.4633 1.83578 20.4633C1.83576 20.4633 1.83574 20.4633 1.83572 20.4632C1.83554 20.4631 1.83565 20.4632 1.83548 20.4631C1.83543 20.4631 1.83532 20.463 1.83528 20.463C1.83525 20.463 1.8352 20.4629 1.83518 20.4629C1.83518 20.4629 1.83509 20.4629 1.83509 20.4629C1.83497 20.4628 1.83505 20.4628 1.83493 20.4628C1.83487 20.4627 1.83486 20.4627 1.8348 20.4627C1.83476 20.4627 1.83478 20.4627 1.83474 20.4627C1.83471 20.4626 1.83473 20.4626 1.83469 20.4626C1.83468 20.4626 1.83467 20.4626 1.83467 20.4626C1.83466 20.4626 1.83465 20.4626 1.83465 20.4626C1.83464 20.4626 1.83463 20.4626 1.83462 20.4626C1.83462 20.4626 1.83461 20.4626 1.83461 20.4626C1.8346 20.4626 1.83458 20.4626 1.83457 20.4626C1.83456 20.4625 1.83456 20.4625 1.83454 20.4625C1.83454 20.4625 1.83454 20.4625 1.83453 20.4625C1.83453 20.4625 1.83453 20.4625 1.83452 20.4625C1.83452 20.4625 1.83452 20.4625 1.83451 20.4625C1.83451 20.4625 1.83451 20.4625 1.83451 20.4625C1.83451 20.4625 1.8345 20.4625 1.8345 20.4625C1.8345 20.4625 1.8345 20.4625 1.8345 20.4625C1.8345 20.4625 1.8345 20.4625 1.32 21.32C0.805504 22.1775 0.805504 22.1775 0.805505 22.1775C0.805505 22.1775 0.805506 22.1775 0.805507 22.1775C0.805508 22.1775 0.805509 22.1775 0.805511 22.1775C0.805512 22.1775 0.805514 22.1775 0.805516 22.1775C0.805519 22.1775 0.805526 22.1775 0.805532 22.1775C0.805539 22.1775 0.805543 22.1775 0.805552 22.1775C0.805557 22.1775 0.805561 22.1775 0.805566 22.1775C0.80557 22.1775 0.805575 22.1775 0.80558 22.1775C0.805585 22.1775 0.805591 22.1775 0.805596 22.1775C0.805602 22.1776 0.805608 22.1776 0.805614 22.1776C0.805644 22.1776 0.805621 22.1776 0.805654 22.1776C0.805661 22.1776 0.805668 22.1776 0.805676 22.1776C0.805683 22.1776 0.805691 22.1776 0.805699 22.1776C0.805764 22.1776 0.805846 22.1777 0.805943 22.1778C0.806077 22.1778 0.806119 22.1779 0.806285 22.178C0.807043 22.1784 0.806374 22.178 0.807261 22.1785C0.8077 22.1788 0.808061 22.179 0.808629 22.1794C0.810522 22.1805 0.810121 22.1803 0.812535 22.1817C0.812962 22.182 0.817056 22.1844 0.818004 22.185C0.819993 22.1862 0.819205 22.1857 0.821324 22.187C0.822259 22.1875 0.82397 22.1886 0.825035 22.1892C0.829535 22.1919 0.828608 22.1914 0.833629 22.1944C0.833807 22.1945 0.838204 22.1971 0.838511 22.1973C0.840842 22.1987 0.841324 22.199 0.843785 22.2005C0.849087 22.2036 0.844018 22.2006 0.849449 22.2039C0.854242 22.2067 0.850581 22.2045 0.855504 22.2075C0.858817 22.2095 0.855332 22.2074 0.858678 22.2094C0.859149 22.2097 0.861446 22.2111 0.861949 22.2114C0.862955 22.212 0.867649 22.2148 0.868785 22.2155C0.876328 22.22 0.875566 22.2195 0.883629 22.2244C0.890255 22.2283 0.909295 22.2398 0.918004 22.245C0.919566 22.2459 0.921145 22.2469 0.92274 22.2478C0.923017 22.248 0.927265 22.2505 0.927574 22.2507C0.92861 22.2514 0.931437 22.2531 0.932506 22.2537C0.933858 22.2545 0.936151 22.2559 0.937535 22.2567C0.947502 22.2627 0.948141 22.2631 0.958629 22.2694C0.979199 22.2817 0.960194 22.2703 0.981285 22.283C0.987759 22.2868 0.986596 22.2861 0.993199 22.2901C0.993382 22.2902 0.999087 22.2936 0.999303 22.2938C1.0008 22.2947 1.00089 22.2947 1.00239 22.2956C1.00277 22.2959 1.00357 22.2963 1.00394 22.2966C1.0042 22.2967 1.00446 22.2969 1.00472 22.297C1.00498 22.2972 1.00524 22.2973 1.0055 22.2975L2.0345 20.5825ZM0.32 21.32C0.32 21.4435 0.342723 21.5791 0.353606 21.6444C0.369487 21.7397 0.391845 21.8582 0.419419 21.9961L2.38058 21.6039C2.35482 21.4751 2.33718 21.3803 2.32639 21.3156C2.32096 21.283 2.31831 21.2642 2.31728 21.256C2.31678 21.252 2.31718 21.2546 2.3178 21.262C2.31824 21.2673 2.32 21.2889 2.32 21.32H0.32ZM0.404963 21.8995C0.469007 22.5399 0.866883 23.0241 1.27982 23.3682L2.56018 21.8318C2.4547 21.7439 2.40669 21.6831 2.38844 21.655C2.37261 21.6307 2.38977 21.6478 2.39504 21.7005L0.404963 21.8995ZM1.28676 23.374C1.86897 23.8503 2.71675 23.96 3.52 23.96V21.96C3.17939 21.96 2.93131 21.933 2.75951 21.8944C2.58218 21.8545 2.53828 21.8138 2.55324 21.826L1.28676 23.374ZM3.52 23.96C4.84728 23.96 6.23518 23.4924 7.66172 22.665L6.65828 20.935C5.41816 21.6542 4.37939 21.96 3.52 21.96V23.96ZM7.66702 22.6619C9.08849 21.8258 10.5631 20.7487 12.0908 19.4393L10.7892 17.9207C9.33024 19.1713 7.95151 20.1742 6.65298 20.9381L7.66702 22.6619ZM12.0841 19.4449C13.6302 18.143 15.1732 16.708 16.7132 15.1409L15.2868 13.7391C13.7868 15.2653 12.2898 16.657 10.7959 17.9151L12.0841 19.4449ZM16.7131 15.141C18.2678 13.5595 19.7694 11.9776 21.2177 10.3952L19.7423 9.04484C18.3106 10.6091 16.8255 12.1738 15.2869 13.739L16.7131 15.141ZM21.2177 10.3952C22.6552 8.82458 23.9988 7.37454 25.2486 6.04491L23.7914 4.67509C22.5346 6.01213 21.1848 7.46876 19.7423 9.04484L21.2177 10.3952ZM25.2486 6.04491C26.4916 4.72262 27.5662 3.64868 28.4748 2.81803L27.1252 1.34197C26.1671 2.21798 25.0551 3.33071 23.7914 4.67509L25.2486 6.04491ZM28.486 2.80759C28.9325 2.3866 29.3034 2.07871 29.6024 1.86996C29.9171 1.6503 30.0864 1.58741 30.1369 1.57619L29.7031 -0.376188C29.2736 -0.28075 28.8496 -0.0436387 28.4576 0.230041C28.0499 0.514623 27.6008 0.893395 27.114 1.35241L28.486 2.80759ZM30.1295 1.5778C30.3032 1.5406 30.3575 1.54 30.34 1.54C30.33 1.54 30.3012 1.53962 30.2598 1.5337C30.2217 1.52825 30.1447 1.51428 30.0511 1.47414C29.9575 1.43405 29.809 1.35113 29.6819 1.18769C29.5437 1.01002 29.48 0.799852 29.48 0.6H31.48C31.48 0.380147 31.4105 0.152479 31.2606 -0.0401881C31.1218 -0.218627 30.9558 -0.314047 30.8389 -0.364144C30.6266 -0.455151 30.4276 -0.460001 30.34 -0.460001C30.1359 -0.460001 29.9102 -0.420598 29.7105 -0.377802L30.1295 1.5778ZM29.48 0.6C29.48 0.481709 29.5044 0.388472 29.5258 0.32866C29.5471 0.269006 29.5702 0.228863 29.582 0.209998C29.6033 0.175863 29.6098 0.176009 29.5729 0.212892L30.9871 1.6271C31.0836 1.53065 31.19 1.4108 31.278 1.27C31.3586 1.14097 31.48 0.905936 31.48 0.6H29.48ZM29.6703 0.127374C29.2103 0.481227 28.662 1.10855 28.0464 1.91157L29.6336 3.12843C30.2446 2.33145 30.6564 1.8921 30.8897 1.71262L29.6703 0.127374ZM28.0565 1.8986C27.4223 2.69828 26.7134 3.68059 25.9309 4.84086L27.5891 5.95914C28.3532 4.82607 29.0311 3.88839 29.6235 3.14139L28.0565 1.8986ZM25.9371 4.83181C25.1592 5.95843 24.3286 7.19097 23.4454 8.52916L25.1146 9.63084C25.9914 8.30236 26.8141 7.08157 27.5829 5.96819L25.9371 4.83181ZM23.4377 8.54095C22.5828 9.87683 21.7278 11.226 20.8729 12.5885L22.5671 13.6515C23.4188 12.294 24.2706 10.9498 25.1223 9.61905L23.4377 8.54095ZM20.8729 12.5885C20.0159 13.9544 19.2119 15.2676 18.4609 16.5282L20.1791 17.5518C20.9215 16.3057 21.7174 15.0056 22.5671 13.6515L20.8729 12.5885ZM18.4576 16.5338C17.7347 17.7654 17.1039 18.8658 16.5658 19.8344L18.3142 20.8056C18.8427 19.8542 19.4653 18.7679 20.1824 17.5462L18.4576 16.5338ZM16.5658 19.8344C16.0286 20.8014 15.6336 21.5734 15.3984 22.1319L17.2416 22.9081C17.4331 22.4533 17.7847 21.7586 18.3142 20.8056L16.5658 19.8344ZM15.4256 22.0728C15.4584 22.0071 15.4927 21.9584 15.5169 21.9273C15.5417 21.8954 15.5636 21.8722 15.5779 21.8579C15.6052 21.8306 15.623 21.8178 15.62 21.82C15.6136 21.8248 15.5801 21.8482 15.5039 21.8918L16.4961 23.6282C16.6066 23.5651 16.7197 23.4952 16.82 23.42C16.8803 23.3747 17.0871 23.2218 17.2144 22.9672L15.4256 22.0728ZM15.5039 21.8918C15.4106 21.945 15.3654 21.9693 15.3528 21.9756C15.3099 21.997 15.3978 21.9473 15.5175 21.9174C15.5369 21.9125 15.6872 21.8716 15.8803 21.8957C15.9822 21.9084 16.2047 21.952 16.4138 22.1351C16.66 22.3505 16.755 22.6403 16.755 22.8869C16.755 23.0936 16.6908 23.2464 16.6601 23.3116C16.6245 23.3872 16.5867 23.4425 16.565 23.4724C16.5216 23.532 16.4816 23.5726 16.4671 23.5871L15.0529 22.1729C15.0351 22.1907 14.9925 22.2341 14.9475 22.296C14.9249 22.3271 14.8865 22.3834 14.8505 22.4599C14.8194 22.526 14.755 22.6795 14.755 22.8868C14.755 23.1341 14.8502 23.4244 15.0968 23.6402C15.3064 23.8236 15.5295 23.8674 15.6322 23.8802C15.8269 23.9046 15.9798 23.8633 16.0025 23.8576C16.0921 23.8353 16.1615 23.8043 16.1758 23.798C16.2041 23.7857 16.2291 23.7735 16.2472 23.7644C16.3146 23.7307 16.4027 23.6816 16.4961 23.6282L15.5039 21.8918ZM16.4671 23.5871C16.5251 23.5292 16.857 23.1506 17.3926 22.5385L15.8874 21.2215C15.6076 21.5413 15.395 21.7838 15.2493 21.9494C15.1763 22.0323 15.1209 22.095 15.0826 22.1381C15.0297 22.1976 15.0329 22.1929 15.0529 22.1729L16.4671 23.5871ZM17.3926 22.5385C17.9486 21.903 18.6922 21.0665 19.6242 20.0279L18.1358 18.6921C17.2012 19.7335 16.4514 20.577 15.8874 21.2215L17.3926 22.5385ZM19.6233 20.029C20.5749 18.9716 21.6609 17.806 22.882 16.5319L21.438 15.1481C20.2057 16.434 19.1051 17.6151 18.1367 18.691L19.6233 20.029ZM22.8891 16.5244C24.1104 15.2235 25.3986 13.8821 26.7539 12.5002L25.3261 11.0998C23.9614 12.4912 22.663 13.8432 21.4309 15.1556L22.8891 16.5244ZM26.7539 12.5002C28.1095 11.1181 29.4515 9.77608 30.7799 8.47421L29.3801 7.04579C28.0418 8.35726 26.6905 9.7086 25.3261 11.0998L26.7539 12.5002ZM30.7801 8.47407C32.1259 7.15464 33.4014 5.98466 34.6067 4.96276L33.3133 3.43724C32.0653 4.49534 30.7541 5.6987 29.3799 7.04593L30.7801 8.47407ZM34.6162 4.9546C35.8278 3.90098 36.882 3.05605 37.7812 2.41373L36.6188 0.786265C35.6513 1.47728 34.5455 2.36568 33.3038 3.44539L34.6162 4.9546ZM37.7704 2.42137C38.7192 1.76249 39.2823 1.54075 39.5395 1.51504L39.3405 -0.475039C38.531 -0.394089 37.6008 0.104174 36.6296 0.778629L37.7704 2.42137ZM39.6189 1.50387C39.661 1.49621 39.6725 1.49666 39.6612 1.49701C39.6579 1.49711 39.5822 1.50069 39.4727 1.46782C39.358 1.43344 39.1343 1.33502 38.9783 1.0816C38.8199 0.824146 38.8335 0.573247 38.8594 0.443885L40.8206 0.836113C40.8598 0.640085 40.8668 0.334187 40.6817 0.0334015C40.499 -0.263352 40.2286 -0.393442 40.0474 -0.447826C39.736 -0.541221 39.4245 -0.493581 39.2611 -0.463872L39.6189 1.50387ZM38.84 0.639999C38.84 0.518348 38.8733 0.367294 38.968 0.225297C39.0584 0.089561 39.1675 0.0182171 39.2328 -0.0144312L40.1272 1.77443C40.2992 1.68845 40.4882 1.55044 40.632 1.3347C40.78 1.11271 40.84 0.868317 40.84 0.639999H38.84ZM39.1713 0.0190721C38.4613 0.438594 37.6507 1.16125 36.7524 2.11399L38.2076 3.48601C39.0693 2.57208 39.7254 2.01474 40.1887 1.74093L39.1713 0.0190721ZM36.7624 2.10352C35.8601 3.03322 34.8826 4.13349 33.8304 5.40143L35.3696 6.67857C36.3974 5.43984 37.3399 4.38011 38.1976 3.49648L36.7624 2.10352ZM33.8304 5.40143C32.7825 6.66433 31.7087 8.00663 30.609 9.42813L32.191 10.6519C33.278 9.24671 34.3375 7.92233 35.3696 6.67857L33.8304 5.40143ZM30.609 9.42813C29.5104 10.8484 28.4515 12.2557 27.4326 13.65L29.0474 14.83C30.0551 13.451 31.103 12.0583 32.191 10.6519L30.609 9.42813ZM27.4252 13.6602C26.4354 15.0513 25.5382 16.3369 24.7338 17.5167L26.3862 18.6433C27.1818 17.4765 28.0713 16.202 29.0548 14.8198L27.4252 13.6602ZM24.7309 17.5209C23.9538 18.6732 23.3195 19.6446 22.8304 20.4326L24.5296 21.4874C25.0005 20.7287 25.6196 19.7801 26.3891 18.6391L24.7309 17.5209ZM22.8252 20.441C22.5929 20.8236 22.4068 21.1504 22.2756 21.4128C22.2104 21.5432 22.1504 21.6742 22.1045 21.7983C22.0688 21.8949 22 22.093 22 22.32H24C24 22.4085 23.9857 22.4685 23.9824 22.4822C23.9778 22.5012 23.9753 22.5057 23.9805 22.4916C23.9913 22.4625 24.0163 22.4035 24.0644 22.3072C24.1599 22.1163 24.3138 21.843 24.5348 21.479L22.8252 20.441ZM22 22.32C22 22.9047 22.317 23.341 22.6988 23.6137L23.8612 21.9863C23.8562 21.9827 23.8944 22.0086 23.9338 22.0761C23.977 22.1503 24 22.2377 24 22.32H22ZM22.75 23.648C23.1319 23.8867 23.5577 24 24 24V22C23.909 22 23.8547 21.98 23.81 21.952L22.75 23.648ZM24 24C24.7792 24 25.5316 23.8123 26.2472 23.4544L25.3528 21.6656C24.8951 21.8944 24.4474 22 24 22V24ZM26.2315 23.4621C26.8781 23.1529 27.4461 22.8344 27.9265 22.504L26.7935 20.856C26.4206 21.1123 25.9485 21.3805 25.3685 21.6579L26.2315 23.4621ZM27.96 22.48C28.1741 22.3194 28.3404 22.1939 28.4575 22.1044C28.5156 22.0599 28.5645 22.0221 28.6021 21.9924C28.6145 21.9827 28.6891 21.9251 28.7471 21.8671L27.3329 20.4529C27.3676 20.4182 27.3959 20.3959 27.3837 20.4059C27.3822 20.4072 27.376 20.4123 27.3629 20.4226C27.3372 20.4429 27.2977 20.4735 27.2426 20.5156C27.133 20.5994 26.9726 20.7206 26.76 20.88L27.96 22.48ZM28.8537 21.7412C28.8438 21.7551 28.792 21.8264 28.685 21.8959C28.5646 21.9742 28.374 22.0484 28.1405 22.025C27.918 22.0028 27.7669 21.9028 27.6924 21.8394C27.6546 21.8074 27.6295 21.7791 27.6153 21.7618C27.6009 21.7441 27.5935 21.7324 27.592 21.73L29.288 20.67C29.1914 20.5155 28.8998 20.091 28.3395 20.035C27.7158 19.9726 27.349 20.407 27.2263 20.5788L28.8537 21.7412ZM27.592 21.73C27.5713 21.6969 27.5267 21.6147 27.5094 21.4891C27.4905 21.3526 27.5101 21.2052 27.572 21.0709C27.6818 20.8332 27.8528 20.7793 27.7862 20.8096L28.6138 22.6304C28.8405 22.5273 29.1982 22.3201 29.388 21.9091C29.613 21.4214 29.47 20.9612 29.288 20.67L27.592 21.73ZM28.2 21.72C27.6786 20.8667 27.6786 20.8667 27.6785 20.8667C27.6785 20.8667 27.6785 20.8667 27.6785 20.8667C27.6785 20.8667 27.6785 20.8667 27.6785 20.8667C27.6785 20.8667 27.6785 20.8667 27.6785 20.8667C27.6785 20.8668 27.6785 20.8668 27.6785 20.8668C27.6784 20.8668 27.6784 20.8668 27.6784 20.8668C27.6784 20.8668 27.6784 20.8668 27.6784 20.8668C27.6784 20.8668 27.6782 20.8669 27.6782 20.867C27.6781 20.867 27.6781 20.867 27.678 20.867C27.678 20.8671 27.678 20.8671 27.6779 20.8671C27.6779 20.8671 27.6779 20.8671 27.6778 20.8671C27.6777 20.8672 27.6778 20.8672 27.6777 20.8673C27.6776 20.8673 27.6776 20.8673 27.6776 20.8673C27.6775 20.8673 27.6775 20.8674 27.6775 20.8674C27.6774 20.8674 27.6771 20.8676 27.677 20.8677C27.6768 20.8678 27.6766 20.8679 27.6764 20.868C27.6763 20.8681 27.6763 20.8681 27.6762 20.8681C27.6762 20.8682 27.6761 20.8682 27.6761 20.8682C27.676 20.8683 27.676 20.8683 27.6759 20.8683C27.6759 20.8684 27.6758 20.8684 27.6757 20.8684C27.6747 20.8691 27.6737 20.8697 27.6722 20.8706C27.6693 20.8724 27.6707 20.8715 27.6673 20.8736C27.6656 20.8746 27.6661 20.8743 27.6643 20.8754C27.6642 20.8755 27.664 20.8756 27.6639 20.8757C27.6638 20.8757 27.6636 20.8758 27.6635 20.8759C27.6634 20.876 27.6632 20.8761 27.6631 20.8762C27.663 20.8762 27.6628 20.8763 27.6627 20.8764C27.6624 20.8766 27.6613 20.8773 27.661 20.8775C27.6608 20.8776 27.6576 20.8795 27.6573 20.8797C27.6571 20.8798 27.657 20.8799 27.6568 20.88C27.6566 20.8801 27.6565 20.8802 27.6563 20.8803C27.6557 20.8807 27.656 20.8805 27.6553 20.8809C27.6538 20.8818 27.6547 20.8813 27.6532 20.8822C27.6519 20.883 27.6503 20.884 27.6488 20.8849C27.6485 20.8851 27.6469 20.8861 27.6465 20.8863C27.6439 20.8879 27.6467 20.8862 27.6441 20.8878C27.6434 20.8882 27.6435 20.8881 27.6429 20.8885C27.6428 20.8886 27.6417 20.8892 27.6416 20.8893C27.6416 20.8893 27.6391 20.8908 27.639 20.8909C27.6349 20.8934 27.6378 20.8916 27.6336 20.8942C27.6096 20.9089 27.6088 20.9093 27.5773 20.9286C27.5446 20.9486 27.5387 20.9522 27.4986 20.9767C27.4979 20.9771 27.4533 21.0044 27.4507 21.0059C27.4389 21.0132 27.4499 21.0064 27.4379 21.0138C27.4374 21.0141 27.4254 21.0214 27.4247 21.0218C27.4237 21.0224 27.3987 21.0377 27.3973 21.0386C27.3494 21.0679 27.3289 21.0804 27.2736 21.1142C27.2198 21.1471 27.1886 21.1661 27.1273 21.2036C27.1253 21.2048 27.1244 21.2054 27.1224 21.2066C27.1198 21.2082 27.12 21.208 27.1174 21.2096C27.1153 21.211 27.1096 21.2144 27.1074 21.2157C27.1018 21.2191 27.0929 21.2246 27.0872 21.2281C27.065 21.2417 27.0684 21.2396 27.0457 21.2534C27.0293 21.2635 27.0198 21.2693 27.0028 21.2796C26.9929 21.2857 26.969 21.3003 26.9586 21.3067L28.0015 23.0133C28.0817 22.9642 28.0974 22.9546 28.1702 22.9102C28.1884 22.899 28.2298 22.8737 28.2461 22.8638C28.254 22.8589 28.2565 22.8574 28.2642 22.8527C28.2734 22.8471 28.273 22.8473 28.282 22.8418C28.2962 22.8332 28.3027 22.8292 28.3165 22.8208C28.3854 22.7786 28.5025 22.7071 28.5415 22.6833C28.6018 22.6464 28.6461 22.6193 28.6765 22.6008C28.6852 22.5954 28.7089 22.5809 28.7102 22.5802C28.7144 22.5776 28.7163 22.5764 28.7186 22.575C28.7196 22.5744 28.7202 22.574 28.7207 22.5737C28.721 22.5736 28.7212 22.5734 28.7213 22.5734C28.7213 22.5733 28.7214 22.5733 28.7214 22.5733C28.7214 22.5733 28.7214 22.5733 28.7214 22.5733C28.7214 22.5733 28.7214 22.5733 28.7214 22.5733C28.7215 22.5733 28.7215 22.5733 28.2 21.72ZM26.973 21.2981C26.5759 21.5317 26.037 21.7911 25.3427 22.0739L26.0973 23.9261C26.843 23.6223 27.4775 23.3217 27.987 23.0219L26.973 21.2981ZM25.3727 22.0623C24.7685 22.286 24.1265 22.4 23.44 22.4V24.4C24.3535 24.4 25.2315 24.2473 26.0673 23.9377L25.3727 22.0623Z" fill="#4D243D" mask="url(#path-1-outside-1_1_2)"/>
</svg>
